# xmcd CD database file
#
# Track frame offsets:
#	150
#	18058
#	35895
#	55482
#	72837
#	91273
#	112588
#	130549
#	151794
#	168720
#
# Disc length: 2455 seconds
#
# Revision: 0
# Processed by: cddbd v1.5.2PL0 Copyright (c) Steve Scherf et al.
# Submitted via: CDex 1.51
#
DISCID=7409950a
DTITLE=Alexander Zonjic - Doin' the D
DYEAR=2009
DGENRE=Jazz
TTITLE0=Top Down
TTITLE1=From A to Z
TTITLE2=Little Sunflower
TTITLE3=Passion Island
TTITLE4=Tourista
TTITLE5=Undun
TTITLE6=Doin' The D
TTITLE7=Good As Goldie
TTITLE8=River Raisin Nights
TTITLE9=Tongue Twister
EXTD=YEAR: 2009
EXTT0=
EXTT1=
EXTT2=
EXTT3=
EXTT4=
EXTT5=
EXTT6=
EXTT7=
EXTT8=
EXTT9=
PLAYORDER=
